<svg xmlns="http://www.w3.org/2000/svg" viewBox="0 0 18 18">
  <defs>
    <linearGradient id="cognitive-gradient" x1="9" y1="16.97" x2="9" y2="1.03" gradientUnits="userSpaceOnUse">
      <stop offset="0" stop-color="#0078d4"/>
      <stop offset="1" stop-color="#5ea0ef"/>
    </linearGradient>
  </defs>
  <path fill="url(#cognitive-gradient)" d="M9,1A8,8,0,1,0,17,9,8,8,0,0,0,9,1Z"/>
  <path fill="#fff" d="M9,3.5A5.5,5.5,0,1,0,14.5,9,5.5,5.5,0,0,0,9,3.5Zm0,9A3.5,3.5,0,1,1,12.5,9,3.5,3.5,0,0,1,9,12.5Z"/>
  <path fill="#50e6ff" d="M9,6.5A2.5,2.5,0,1,0,11.5,9,2.5,2.5,0,0,0,9,6.5Zm0,4A1.5,1.5,0,1,1,10.5,9,1.5,1.5,0,0,1,9,10.5Z"/>
</svg>
